<svg xmlns="http://www.w3.org/2000/svg" width="170" height="170" viewBox="0 0 170 170"><defs><style>.a{opacity:0.2;}.b{fill:#fff;}</style></defs><g transform="translate(-779.119 -1203.119)"><circle class="a" cx="85" cy="85" r="85" transform="translate(779.119 1203.119)"/><g transform="translate(831.979 1261.521)"><g transform="translate(0 0)"><g transform="translate(0 0)"><circle class="b" cx="13.343" cy="13.343" r="13.343" transform="translate(18.681 16.012)"/><path class="b" d="M58.711,50.673H50.247A3.981,3.981,0,0,1,47.416,49.5l-4.879-4.879a6.63,6.63,0,0,0-4.718-1.955H26.229a6.63,6.63,0,0,0-4.718,1.955L16.632,49.5A3.981,3.981,0,0,1,13.8,50.673H5.337A5.343,5.343,0,0,0,0,56.01V90.7A5.343,5.343,0,0,0,5.337,96.04H58.711A5.343,5.343,0,0,0,64.048,90.7V56.01A5.343,5.343,0,0,0,58.711,50.673ZM32.024,88.034A16.012,16.012,0,1,1,48.036,72.022,16.03,16.03,0,0,1,32.024,88.034ZM53.373,64.016a2.669,2.669,0,1,1,2.669-2.669A2.672,2.672,0,0,1,53.373,64.016Z" transform="translate(0 -42.667)"/></g></g></g></g></svg>